<?xml version="1.0" encoding="UTF-8" standalone="no"?>
<svg
   xmlns:dc="http://purl.org/dc/elements/1.1/"
   xmlns:cc="http://creativecommons.org/ns#"
   xmlns:rdf="http://www.w3.org/1999/02/22-rdf-syntax-ns#"
   xmlns:svg="http://www.w3.org/2000/svg"
   xmlns="http://www.w3.org/2000/svg"
   xmlns:sodipodi="http://sodipodi.sourceforge.net/DTD/sodipodi-0.dtd"
   xmlns:inkscape="http://www.inkscape.org/namespaces/inkscape"
   width="239.99999999999997"
   height="98.17975069470033"
   viewBox="0 0 239.99999999999997 98.17975069470033"
   class="css-1j8o68f"
   version="1.1"
   id="svg15"
   sodipodi:docname="libservice.svg"
   inkscape:version="0.92.3 (2405546, 2018-03-11)">
  <metadata
     id="metadata19">
    <rdf:RDF>
      <cc:Work
         rdf:about="">
        <dc:format>image/svg+xml</dc:format>
        <dc:type
           rdf:resource="http://purl.org/dc/dcmitype/StillImage" />
        <dc:title></dc:title>
      </cc:Work>
    </rdf:RDF>
  </metadata>
  <sodipodi:namedview
     pagecolor="#ffffff"
     bordercolor="#666666"
     borderopacity="1"
     objecttolerance="10"
     gridtolerance="10"
     guidetolerance="10"
     inkscape:pageopacity="0"
     inkscape:pageshadow="2"
     inkscape:window-width="2560"
     inkscape:window-height="1329"
     id="namedview17"
     showgrid="false"
     inkscape:zoom="4.4623329"
     inkscape:cx="-48.898743"
     inkscape:cy="43.961714"
     inkscape:window-x="0"
     inkscape:window-y="55"
     inkscape:window-maximized="1"
     inkscape:current-layer="svg15" />
  <defs
     id="SvgjsDefs1220" />
  <rect
     style="fill:#f9f9f9;stroke-width:1.28145385"
     id="rect29"
     width="308.1348"
     height="308.1348"
     x="-202.96614"
     y="-135.70505"
     inkscape:export-filename="/home/ransomware/Desktop/libservice.png"
     inkscape:export-xdpi="319.39001"
     inkscape:export-ydpi="319.39001" />
  <g
     id="g135"
     transform="matrix(1.2814539,0,0,1.2814539,18.730095,34.717763)"
     inkscape:export-xdpi="319"
     inkscape:export-ydpi="319">
    <g
       inkscape:export-ydpi="409"
       inkscape:export-xdpi="409"
       inkscape:export-filename="/home/ransomware/Desktop/libservice.png"
       transform="matrix(0.7278563,0,0,0.7278563,-136.24151,-17.368027)"
       id="g57">
      <g
         id="g127">
        <g
           style="fill:#8c82fc"
           id="SvgjsG1246"
           featurekey="monogramFeature-0"
           transform="matrix(5.372051,0,0,5.372051,33.109742,-220.93541)">
          <path
             inkscape:connector-curvature="0"
             d="m 15.243,19.164 c -3.9719,0 -7.4538,2.1024 -9.4182,5.2465 l 21.661,16.322 v 6.5829 h -0.2485 l 0.2485,0.18668 v 0.28348 c 0,6.7512 -5.4927,12.243 -12.244,12.243 -6.7513,0 -12.243,-5.4921 -12.243,-12.243 H 4.134 c 0,6.1248 4.9828,11.108 11.108,11.108 6.0318,0 10.955,-4.8311 11.105,-10.826 L 2.999,30.55656 v -0.28348 c 0,-6.7512 5.4921,-12.243 12.243,-12.243 6.7509,0 12.244,5.4921 12.244,12.243 h -1.1352 c 0,-6.1248 -4.9834,-11.108 -11.108,-11.108 z M 26.351,41.299 5.268,25.413 c -0.68016,1.3913 -1.0891,2.9383 -1.1299,4.5786 l 22.213,16.66 v -5.3521 z"
             id="path3" />
        </g>
        <g
           style="fill:#8c82fc"
           id="SvgjsG1247"
           featurekey="nameFeature-0"
           transform="matrix(0.44804114,0,0,0.44804114,3.6865397,117.84069)">
          <path
             inkscape:connector-curvature="0"
             d="m 12.12,24.46 c 5.52,1.18 10.26,2.7 10.26,8.52 0,4.26 -3.06,7.62 -10.14,7.62 C 6.4,40.6 2.58,38.36 2.2,34.22 2.16,33.82 2.4,33.48 2.76,33.48 h 1.36 c 0.36,0 0.58,0.3 0.6,0.62 0.26,2.54 3.06,4.2 7.52,4.2 4.96,0 7.66,-1.74 7.66,-5.36 0,-4.3 -3.32,-4.96 -7.78,-6.06 C 7,25.62 2.94,24.04 2.94,18.72 c 0,-4.22 3.02,-7.06 9,-7.06 5.64,0 9.16,2.18 9.58,6.3 0.04,0.4 -0.2,0.56 -0.56,0.56 H 19.7 c -0.36,0 -0.58,-0.12 -0.6,-0.44 -0.26,-2.44 -2.92,-4.18 -7.18,-4.18 -3.92,0 -6.6,1.58 -6.6,4.82 0,3.42 2.7,4.84 6.8,5.74 z m 36.8075,13.18 c 0.36,0 0.6,0.24 0.6,0.6 v 1.16 c 0,0.36 -0.24,0.6 -0.6,0.6 h -16.9 c -0.36,0 -0.6,-0.24 -0.6,-0.6 V 12.6 c 0,-0.36 0.24,-0.6 0.6,-0.6 h 16.86 c 0.36,0 0.6,0.24 0.6,0.6 v 1.16 c 0,0.36 -0.24,0.6 -0.6,0.6 h -14.96 v 9.62 h 13.86 c 0.36,0 0.6,0.24 0.6,0.6 v 1.16 c 0,0.36 -0.24,0.6 -0.6,0.6 h -13.86 v 11.3 z m 23.8675,-8.94 5.6,10.6 c 0.22,0.42 0.02,0.7 -0.44,0.7 h -1.48 c -0.32,0 -0.54,-0.14 -0.7,-0.44 l -5.56,-10.58 h -0.58 -8.06 V 39.4 c 0,0.36 -0.24,0.6 -0.6,0.6 h -1.3 c -0.36,0 -0.6,-0.24 -0.6,-0.6 V 12.6 c 0,-0.36 0.24,-0.6 0.6,-0.6 h 9.96 c 6.7,0 9.44,3.12 9.44,8.48 0,4.44 -1.86,7.34 -6.28,8.22 z m -11.22,-2.08 h 8.2 c 3.98,0 6.84,-1.16 6.84,-6.14 0,-4.98 -2.86,-6.12 -6.84,-6.12 h -8.2 z m 45.6475,-14.14 c 0.14,-0.36 0.36,-0.48 0.68,-0.48 h 1.26 c 0.44,0 0.64,0.28 0.48,0.68 l -10.32,26.84 c -0.12,0.32 -0.38,0.48 -0.7,0.48 h -1.48 c -0.32,0 -0.62,-0.16 -0.74,-0.48 l -10.32,-26.84 c -0.16,-0.4 0.04,-0.68 0.48,-0.68 h 1.26 c 0.32,0 0.54,0.12 0.68,0.48 l 9.36,24.58 z m 29.4275,1.88 h -8 v 23.28 h 8 c 0.36,0 0.6,0.24 0.6,0.6 v 1.16 c 0,0.36 -0.24,0.6 -0.6,0.6 h -18.5 c -0.36,0 -0.6,-0.24 -0.6,-0.6 v -1.16 c 0,-0.36 0.24,-0.6 0.6,-0.6 h 8 V 14.36 h -8 c -0.36,0 -0.6,-0.24 -0.6,-0.6 V 12.6 c 0,-0.36 0.24,-0.6 0.6,-0.6 h 18.5 c 0.36,0 0.6,0.24 0.6,0.6 v 1.16 c 0,0.36 -0.24,0.6 -0.6,0.6 z m 32.0875,20.76 0.86,0.86 c 0.3,0.28 0.24,0.6 -0.04,0.84 -2.62,2.42 -5.56,3.7 -9.36,3.7 -7.94,0 -14,-6.42 -14,-14.4 0,-8.04 6.06,-14.44 14,-14.44 3.8,0 6.74,1.4 9.36,3.68 0.28,0.24 0.34,0.56 0.04,0.84 l -0.86,0.88 c -0.3,0.28 -0.56,0.22 -0.84,-0.02 -2.16,-1.86 -4.56,-2.96 -7.68,-2.96 -6.36,0 -11.5,5.14 -11.5,12.02 0,6.82 5.14,11.96 11.5,11.96 3.12,0 5.52,-1.08 7.68,-2.96 0.28,-0.24 0.54,-0.28 0.84,0 z m 27.7075,2.52 c 0.36,0 0.6,0.24 0.6,0.6 v 1.16 c 0,0.36 -0.24,0.6 -0.6,0.6 h -16.9 c -0.36,0 -0.6,-0.24 -0.6,-0.6 V 12.6 c 0,-0.36 0.24,-0.6 0.6,-0.6 h 16.86 c 0.36,0 0.6,0.24 0.6,0.6 v 1.16 c 0,0.36 -0.24,0.6 -0.6,0.6 h -14.96 v 9.62 h 13.86 c 0.36,0 0.6,0.24 0.6,0.6 v 1.16 c 0,0.36 -0.24,0.6 -0.6,0.6 h -13.86 v 11.3 z M 225.3925,40 c 0.36,0 0.6,0.24 0.6,0.6 v 0.96 c 0,0.36 -0.24,0.6 -0.6,0.6 h -18.8 c -0.36,0 -0.6,-0.24 -0.6,-0.6 V 40.6 c 0,-0.36 0.24,-0.6 0.6,-0.6 z M 255.04,12 c 0.36,0 0.6,0.24 0.6,0.6 v 1.16 c 0,0.36 -0.24,0.6 -0.6,0.6 h -8.9 V 39.4 c 0,0.36 -0.24,0.6 -0.6,0.6 h -1.3 c -0.36,0 -0.6,-0.24 -0.6,-0.6 V 14.36 h -8.9 c -0.36,0 -0.6,-0.24 -0.6,-0.6 V 12.6 c 0,-0.36 0.24,-0.6 0.6,-0.6 z m 26.8475,25.64 c 0.36,0 0.6,0.24 0.6,0.6 v 1.16 c 0,0.36 -0.24,0.6 -0.6,0.6 h -16.9 c -0.36,0 -0.6,-0.24 -0.6,-0.6 V 12.6 c 0,-0.36 0.24,-0.6 0.6,-0.6 h 16.86 c 0.36,0 0.6,0.24 0.6,0.6 v 1.16 c 0,0.36 -0.24,0.6 -0.6,0.6 h -14.96 v 9.62 h 13.86 c 0.36,0 0.6,0.24 0.6,0.6 v 1.16 c 0,0.36 -0.24,0.6 -0.6,0.6 h -13.86 v 11.3 z M 319.275,12 c 0.36,0 0.6,0.24 0.6,0.6 v 26.8 c 0,0.36 -0.24,0.6 -0.6,0.6 h -1.3 c -0.36,0 -0.6,-0.24 -0.6,-0.6 V 16.18 l -10.08,23.38 c -0.12,0.32 -0.34,0.44 -0.66,0.44 h -1.46 c -0.32,0 -0.54,-0.12 -0.66,-0.44 l -9.98,-23.16 v 23 c 0,0.36 -0.24,0.6 -0.6,0.6 h -1.3 c -0.36,0 -0.6,-0.24 -0.6,-0.6 V 12.6 c 0,-0.36 0.24,-0.6 0.6,-0.6 h 1.94 c 0.32,0 0.6,0.12 0.72,0.4 l 10.64,24.86 10.58,-24.86 c 0.12,-0.28 0.4,-0.4 0.72,-0.4 z m 21.4075,0 c 6.7,0 9.44,3.12 9.44,8.48 0,5.38 -2.74,8.5 -9.44,8.5 h -8.06 V 39.4 c 0,0.36 -0.24,0.6 -0.6,0.6 h -1.3 c -0.36,0 -0.6,-0.24 -0.6,-0.6 V 12.6 c 0,-0.36 0.24,-0.6 0.6,-0.6 z m 0.14,14.62 c 3.98,0 6.84,-1.16 6.84,-6.14 0,-4.98 -2.86,-6.12 -6.84,-6.12 h -8.2 V 26.62 Z M 376.17,37.64 c 0.36,0 0.6,0.24 0.6,0.6 v 1.16 c 0,0.36 -0.24,0.6 -0.6,0.6 h -16.7 c -0.36,0 -0.6,-0.24 -0.6,-0.6 V 12.6 c 0,-0.36 0.24,-0.6 0.6,-0.6 h 1.3 c 0.36,0 0.6,0.24 0.6,0.6 v 25.04 z m 31.1675,1.68 c 0.16,0.4 -0.04,0.68 -0.48,0.68 h -1.26 c -0.32,0 -0.54,-0.12 -0.68,-0.48 l -2.3,-6.06 h -14.12 l -2.3,6.06 c -0.14,0.36 -0.36,0.48 -0.68,0.48 h -1.26 c -0.44,0 -0.64,-0.28 -0.48,-0.68 l 10.32,-26.84 c 0.12,-0.32 0.42,-0.48 0.74,-0.48 h 1.48 c 0.32,0 0.58,0.16 0.7,0.48 z m -17.94,-8.18 h 12.32 l -6.16,-16.2 z M 435.145,12 c 0.36,0 0.6,0.24 0.6,0.6 v 1.16 c 0,0.36 -0.24,0.6 -0.6,0.6 h -8.9 V 39.4 c 0,0.36 -0.24,0.6 -0.6,0.6 h -1.3 c -0.36,0 -0.6,-0.24 -0.6,-0.6 V 14.36 h -8.9 c -0.36,0 -0.6,-0.24 -0.6,-0.6 V 12.6 c 0,-0.36 0.24,-0.6 0.6,-0.6 z m 26.8475,25.64 c 0.36,0 0.6,0.24 0.6,0.6 v 1.16 c 0,0.36 -0.24,0.6 -0.6,0.6 h -16.9 c -0.36,0 -0.6,-0.24 -0.6,-0.6 V 12.6 c 0,-0.36 0.24,-0.6 0.6,-0.6 h 16.86 c 0.36,0 0.6,0.24 0.6,0.6 v 1.16 c 0,0.36 -0.24,0.6 -0.6,0.6 h -14.96 v 9.62 h 13.86 c 0.36,0 0.6,0.24 0.6,0.6 v 1.16 c 0,0.36 -0.24,0.6 -0.6,0.6 h -13.86 v 11.3 z M 478.6,12 c 9.76,0 14.64,6.04 14.64,14 0,7.94 -4.88,14 -14.64,14 h -5.86 c -0.36,0 -0.6,-0.24 -0.6,-0.6 V 12.6 c 0,-0.36 0.24,-0.6 0.6,-0.6 z m 0,25.64 c 8.1,0 12.1,-4.48 12.1,-11.64 0,-7.18 -4,-11.64 -12.1,-11.64 h -3.96 v 23.28 z"
             id="path6" />
        </g>
      </g>
    </g>
  </g>
</svg>
